<mxfile host="app.diagrams.net" agent="Mozilla/5.0 (Windows NT 10.0; Win64; x64) AppleWebKit/537.36 (KHTML, like Gecko) Chrome/133.0.0.0 Safari/537.36 Edg/133.0.0.0" version="26.0.13">
  <diagram name="PÃ¡gina-1" id="DL9Du1Ubln6nXRuuQuPW">
    <mxGraphModel dx="966" dy="431" grid="1" gridSize="10" guides="1" tooltips="1" connect="1" arrows="1" fold="1" page="1" pageScale="1" pageWidth="827" pageHeight="1169" math="0" shadow="0" adaptiveColors="auto">
      <root>
        <mxCell id="0" />
        <mxCell id="1" parent="0" />
        <mxCell id="nCaI8QMBJHaDS-SpAPe8-1" value="customer&lt;div&gt;&lt;br&gt;&lt;/div&gt;" style="shape=cylinder3;whiteSpace=wrap;html=1;boundedLbl=1;backgroundOutline=1;size=15;rounded=1;fillColor=#dae8fc;strokeColor=#6c8ebf;" vertex="1" parent="1">
          <mxGeometry x="120" y="280" width="60" height="80" as="geometry" />
        </mxCell>
        <mxCell id="nCaI8QMBJHaDS-SpAPe8-2" value="account" style="shape=cylinder3;whiteSpace=wrap;html=1;boundedLbl=1;backgroundOutline=1;size=15;rounded=1;fillColor=#dae8fc;strokeColor=#6c8ebf;" vertex="1" parent="1">
          <mxGeometry x="260" y="280" width="60" height="80" as="geometry" />
        </mxCell>
        <mxCell id="nCaI8QMBJHaDS-SpAPe8-3" value="credit&lt;div&gt;&lt;br&gt;&lt;/div&gt;" style="shape=cylinder3;whiteSpace=wrap;html=1;boundedLbl=1;backgroundOutline=1;size=15;rounded=1;fillColor=#dae8fc;strokeColor=#6c8ebf;" vertex="1" parent="1">
          <mxGeometry x="410" y="280" width="60" height="80" as="geometry" />
        </mxCell>
        <mxCell id="nCaI8QMBJHaDS-SpAPe8-4" value="creditcard&lt;div&gt;&lt;br&gt;&lt;/div&gt;" style="shape=cylinder3;whiteSpace=wrap;html=1;boundedLbl=1;backgroundOutline=1;size=15;rounded=1;fillColor=#dae8fc;strokeColor=#6c8ebf;" vertex="1" parent="1">
          <mxGeometry x="550" y="280" width="60" height="80" as="geometry" />
        </mxCell>
        <mxCell id="nCaI8QMBJHaDS-SpAPe8-5" value="movements&lt;div&gt;&lt;br&gt;&lt;/div&gt;" style="shape=cylinder3;whiteSpace=wrap;html=1;boundedLbl=1;backgroundOutline=1;size=15;rounded=1;fillColor=#dae8fc;strokeColor=#6c8ebf;" vertex="1" parent="1">
          <mxGeometry x="690" y="280" width="60" height="80" as="geometry" />
        </mxCell>
        <mxCell id="nCaI8QMBJHaDS-SpAPe8-7" value="payment" style="shape=cylinder3;whiteSpace=wrap;html=1;boundedLbl=1;backgroundOutline=1;size=15;rounded=1;fillColor=#dae8fc;strokeColor=#6c8ebf;" vertex="1" parent="1">
          <mxGeometry x="820" y="280" width="60" height="80" as="geometry" />
        </mxCell>
        <mxCell id="nCaI8QMBJHaDS-SpAPe8-9" value="ms customer" style="rounded=1;whiteSpace=wrap;html=1;fillColor=#f0a30a;fontColor=#000000;strokeColor=#BD7000;" vertex="1" parent="1">
          <mxGeometry x="90" y="140" width="120" height="60" as="geometry" />
        </mxCell>
        <mxCell id="nCaI8QMBJHaDS-SpAPe8-10" value="ms account" style="rounded=1;whiteSpace=wrap;html=1;fillColor=#f0a30a;fontColor=#000000;strokeColor=#BD7000;" vertex="1" parent="1">
          <mxGeometry x="230" y="140" width="120" height="60" as="geometry" />
        </mxCell>
        <mxCell id="nCaI8QMBJHaDS-SpAPe8-11" value="ms credit" style="rounded=1;whiteSpace=wrap;html=1;fillColor=#f0a30a;fontColor=#000000;strokeColor=#BD7000;" vertex="1" parent="1">
          <mxGeometry x="370" y="140" width="120" height="60" as="geometry" />
        </mxCell>
        <mxCell id="nCaI8QMBJHaDS-SpAPe8-12" value="ms creditcard" style="rounded=1;whiteSpace=wrap;html=1;fillColor=#f0a30a;fontColor=#000000;strokeColor=#BD7000;" vertex="1" parent="1">
          <mxGeometry x="510" y="140" width="120" height="60" as="geometry" />
        </mxCell>
        <mxCell id="nCaI8QMBJHaDS-SpAPe8-13" value="ms movement" style="rounded=1;whiteSpace=wrap;html=1;fillColor=#f0a30a;fontColor=#000000;strokeColor=#BD7000;" vertex="1" parent="1">
          <mxGeometry x="650" y="140" width="120" height="60" as="geometry" />
        </mxCell>
        <mxCell id="nCaI8QMBJHaDS-SpAPe8-14" value="ms payment" style="rounded=1;whiteSpace=wrap;html=1;fillColor=#f0a30a;fontColor=#000000;strokeColor=#BD7000;" vertex="1" parent="1">
          <mxGeometry x="790" y="140" width="120" height="60" as="geometry" />
        </mxCell>
        <mxCell id="nCaI8QMBJHaDS-SpAPe8-18" style="edgeStyle=orthogonalEdgeStyle;rounded=1;orthogonalLoop=1;jettySize=auto;html=1;entryX=0.5;entryY=0;entryDx=0;entryDy=0;" edge="1" parent="1" source="nCaI8QMBJHaDS-SpAPe8-15" target="nCaI8QMBJHaDS-SpAPe8-11">
          <mxGeometry relative="1" as="geometry" />
        </mxCell>
        <mxCell id="nCaI8QMBJHaDS-SpAPe8-19" style="edgeStyle=orthogonalEdgeStyle;rounded=1;orthogonalLoop=1;jettySize=auto;html=1;entryX=0.5;entryY=0;entryDx=0;entryDy=0;" edge="1" parent="1" source="nCaI8QMBJHaDS-SpAPe8-15" target="nCaI8QMBJHaDS-SpAPe8-12">
          <mxGeometry relative="1" as="geometry" />
        </mxCell>
        <mxCell id="nCaI8QMBJHaDS-SpAPe8-20" style="edgeStyle=orthogonalEdgeStyle;rounded=1;orthogonalLoop=1;jettySize=auto;html=1;entryX=0.5;entryY=0;entryDx=0;entryDy=0;" edge="1" parent="1" source="nCaI8QMBJHaDS-SpAPe8-15" target="nCaI8QMBJHaDS-SpAPe8-13">
          <mxGeometry relative="1" as="geometry" />
        </mxCell>
        <mxCell id="nCaI8QMBJHaDS-SpAPe8-21" style="edgeStyle=orthogonalEdgeStyle;rounded=1;orthogonalLoop=1;jettySize=auto;html=1;entryX=0.5;entryY=0;entryDx=0;entryDy=0;" edge="1" parent="1" source="nCaI8QMBJHaDS-SpAPe8-15" target="nCaI8QMBJHaDS-SpAPe8-14">
          <mxGeometry relative="1" as="geometry" />
        </mxCell>
        <mxCell id="nCaI8QMBJHaDS-SpAPe8-29" style="edgeStyle=orthogonalEdgeStyle;rounded=1;orthogonalLoop=1;jettySize=auto;html=1;entryX=0.5;entryY=0;entryDx=0;entryDy=0;" edge="1" parent="1" source="nCaI8QMBJHaDS-SpAPe8-15" target="nCaI8QMBJHaDS-SpAPe8-10">
          <mxGeometry relative="1" as="geometry">
            <Array as="points">
              <mxPoint x="645" y="110" />
              <mxPoint x="290" y="110" />
            </Array>
          </mxGeometry>
        </mxCell>
        <mxCell id="nCaI8QMBJHaDS-SpAPe8-30" style="edgeStyle=orthogonalEdgeStyle;rounded=1;orthogonalLoop=1;jettySize=auto;html=1;" edge="1" parent="1" source="nCaI8QMBJHaDS-SpAPe8-15" target="nCaI8QMBJHaDS-SpAPe8-9">
          <mxGeometry relative="1" as="geometry">
            <Array as="points">
              <mxPoint x="645" y="110" />
              <mxPoint x="150" y="110" />
            </Array>
          </mxGeometry>
        </mxCell>
        <mxCell id="nCaI8QMBJHaDS-SpAPe8-15" value="ms transaction" style="rounded=1;whiteSpace=wrap;html=1;fillColor=#e3c800;fontColor=#000000;strokeColor=#B09500;" vertex="1" parent="1">
          <mxGeometry x="420" width="450" height="80" as="geometry" />
        </mxCell>
        <mxCell id="nCaI8QMBJHaDS-SpAPe8-22" style="edgeStyle=orthogonalEdgeStyle;rounded=1;orthogonalLoop=1;jettySize=auto;html=1;entryX=0.5;entryY=0;entryDx=0;entryDy=0;entryPerimeter=0;" edge="1" parent="1" source="nCaI8QMBJHaDS-SpAPe8-9" target="nCaI8QMBJHaDS-SpAPe8-1">
          <mxGeometry relative="1" as="geometry" />
        </mxCell>
        <mxCell id="nCaI8QMBJHaDS-SpAPe8-23" style="edgeStyle=orthogonalEdgeStyle;rounded=1;orthogonalLoop=1;jettySize=auto;html=1;entryX=0.5;entryY=0;entryDx=0;entryDy=0;entryPerimeter=0;" edge="1" parent="1" source="nCaI8QMBJHaDS-SpAPe8-10" target="nCaI8QMBJHaDS-SpAPe8-2">
          <mxGeometry relative="1" as="geometry" />
        </mxCell>
        <mxCell id="nCaI8QMBJHaDS-SpAPe8-24" style="edgeStyle=orthogonalEdgeStyle;rounded=1;orthogonalLoop=1;jettySize=auto;html=1;entryX=0.322;entryY=0.063;entryDx=0;entryDy=0;entryPerimeter=0;" edge="1" parent="1" source="nCaI8QMBJHaDS-SpAPe8-11" target="nCaI8QMBJHaDS-SpAPe8-3">
          <mxGeometry relative="1" as="geometry" />
        </mxCell>
        <mxCell id="nCaI8QMBJHaDS-SpAPe8-25" style="edgeStyle=orthogonalEdgeStyle;rounded=1;orthogonalLoop=1;jettySize=auto;html=1;entryX=0.344;entryY=0.071;entryDx=0;entryDy=0;entryPerimeter=0;" edge="1" parent="1" source="nCaI8QMBJHaDS-SpAPe8-12" target="nCaI8QMBJHaDS-SpAPe8-4">
          <mxGeometry relative="1" as="geometry" />
        </mxCell>
        <mxCell id="nCaI8QMBJHaDS-SpAPe8-26" style="edgeStyle=orthogonalEdgeStyle;rounded=1;orthogonalLoop=1;jettySize=auto;html=1;entryX=0.344;entryY=-0.004;entryDx=0;entryDy=0;entryPerimeter=0;" edge="1" parent="1" source="nCaI8QMBJHaDS-SpAPe8-13" target="nCaI8QMBJHaDS-SpAPe8-5">
          <mxGeometry relative="1" as="geometry" />
        </mxCell>
        <mxCell id="nCaI8QMBJHaDS-SpAPe8-27" style="edgeStyle=orthogonalEdgeStyle;rounded=1;orthogonalLoop=1;jettySize=auto;html=1;entryX=0.5;entryY=0;entryDx=0;entryDy=0;entryPerimeter=0;" edge="1" parent="1" source="nCaI8QMBJHaDS-SpAPe8-14" target="nCaI8QMBJHaDS-SpAPe8-7">
          <mxGeometry relative="1" as="geometry" />
        </mxCell>
        <mxCell id="nCaI8QMBJHaDS-SpAPe8-31" style="edgeStyle=orthogonalEdgeStyle;rounded=1;orthogonalLoop=1;jettySize=auto;html=1;entryX=0.5;entryY=0;entryDx=0;entryDy=0;" edge="1" parent="1" source="nCaI8QMBJHaDS-SpAPe8-28" target="nCaI8QMBJHaDS-SpAPe8-9">
          <mxGeometry relative="1" as="geometry" />
        </mxCell>
        <mxCell id="nCaI8QMBJHaDS-SpAPe8-32" style="edgeStyle=orthogonalEdgeStyle;rounded=1;orthogonalLoop=1;jettySize=auto;html=1;" edge="1" parent="1" source="nCaI8QMBJHaDS-SpAPe8-28" target="nCaI8QMBJHaDS-SpAPe8-10">
          <mxGeometry relative="1" as="geometry" />
        </mxCell>
        <mxCell id="nCaI8QMBJHaDS-SpAPe8-28" value="config - server&lt;div&gt;&lt;br&gt;&lt;/div&gt;" style="rounded=1;whiteSpace=wrap;html=1;fillColor=#6a00ff;fontColor=#ffffff;strokeColor=#3700CC;" vertex="1" parent="1">
          <mxGeometry x="80" width="290" height="80" as="geometry" />
        </mxCell>
      </root>
    </mxGraphModel>
  </diagram>
</mxfile>
